<svg width="26" height="26" viewBox="0 0 26 26" fill="none" xmlns="http://www.w3.org/2000/svg">
<circle cx="12.6146" cy="12.5965" r="11.6112" fill="white" stroke="#6D9CE2" stroke-width="1.70392"/>
<path d="M11.2563 15.0708H13.1241V14.9033C13.134 13.9423 13.479 13.4938 14.2576 13.0256C15.1792 12.4786 15.7805 11.7541 15.7805 10.5959C15.7805 8.87105 14.3907 7.86568 12.4342 7.86568C10.6452 7.86568 9.18643 8.80205 9.14207 10.7734H11.1528C11.1824 9.97006 11.7787 9.5413 12.4243 9.5413C13.0896 9.5413 13.6268 9.98484 13.6268 10.6699C13.6268 11.3155 13.1586 11.7442 12.5524 12.1286C11.7245 12.651 11.2612 13.1784 11.2563 14.9033V15.0708ZM12.2272 18.2249C12.858 18.2249 13.405 17.6976 13.41 17.0421C13.405 16.3965 12.858 15.8692 12.2272 15.8692C11.5766 15.8692 11.0395 16.3965 11.0444 17.0421C11.0395 17.6976 11.5766 18.2249 12.2272 18.2249Z" fill="#6D9CE2"/>
</svg>
