<svg width="21" height="18" viewBox="0 0 21 18" fill="none" xmlns="http://www.w3.org/2000/svg">
<path d="M4.10781 5.44873C-0.141226 5.44873 4.27356 5.44873 2.51906 5.44873C1.70541 5.44873 1.03989 6.10833 1.03989 6.92198V14.4155L0.884911 16.1374C0.850757 16.5169 1.34477 16.6921 1.55738 16.3759L2.05285 15.6391C2.5672 14.8742 3.4285 14.4155 4.35025 14.4155H12.2767C13.0904 14.4155 13.75 13.7567 13.75 12.943C13.75 12.6224 13.75 12.2357 13.75 11.7705" stroke="#2C2C2C" stroke-width="1.5" stroke-linecap="round"/>
<path d="M4.20703 2.63231C4.20703 1.81866 4.86663 1.15906 5.68028 1.15906H17.8069C18.6205 1.15906 19.2801 1.81866 19.2801 2.63231V11.7928L19.4878 14.1007C19.522 14.4802 19.028 14.6554 18.8154 14.3393L17.9259 13.0165C17.4115 12.2516 16.5502 11.7928 15.6285 11.7928H5.68028C4.86663 11.7928 4.20703 11.1332 4.20703 10.3196V2.63231Z" stroke="#2C2C2C" stroke-width="1.5" stroke-linecap="round"/>
<circle cx="9.15593" cy="6.91557" r="0.727704" fill="#2C2C2C"/>
<circle cx="11.7282" cy="6.91557" r="0.727704" fill="#2C2C2C"/>
<circle cx="14.3005" cy="6.91557" r="0.727704" fill="#2C2C2C"/>
</svg>
