<svg width="19" height="23" viewBox="0 0 19 23" fill="none" xmlns="http://www.w3.org/2000/svg">
<rect x="0.994141" y="1.14685" width="17.2406" height="21.0153" rx="2.25" stroke="#2C2C2C" stroke-width="1.5" stroke-linecap="round"/>
<path d="M4.32227 5.34314H10.8163" stroke="#2C2C2C" stroke-width="1.5" stroke-linecap="round"/>
<path d="M4.32227 19.3412L15.2938 19.3412" stroke="#2C2C2C" stroke-width="1.5" stroke-linecap="round"/>
<path d="M4.39258 8.47986H10.8192" stroke="#2C2C2C" stroke-width="1.5" stroke-linecap="round"/>
<path d="M14.8647 10.4589L14.8549 10.4589L12.444 10.2011C12.4439 10.2011 12.4438 10.2011 12.4437 10.2011C12.4251 10.199 12.4012 10.1887 12.3792 10.1601C12.3569 10.1311 12.3418 10.0886 12.3466 10.038C12.3516 9.98503 12.3748 9.94888 12.3972 9.92923C12.4183 9.91063 12.4367 9.90718 12.4527 9.90904L12.4527 9.90906L12.4573 9.90955L14.8707 10.1676C14.8708 10.1676 14.8709 10.1676 14.871 10.1676C14.8896 10.1698 14.9136 10.18 14.9356 10.2087C14.9578 10.2376 14.9729 10.2802 14.9681 10.3308L14.9681 10.3311C14.9587 10.4309 14.8903 10.4589 14.8647 10.4589Z" fill="#6EBF5D" stroke="#2C2C2C"/>
<path d="M14.7532 12.7063L14.7528 12.6964L14.9084 10.2746C14.9084 10.2745 14.9084 10.2744 14.9084 10.2743C14.9098 10.2551 14.9192 10.2306 14.9468 10.2075C14.9747 10.1841 15.0162 10.1673 15.0666 10.17C15.1192 10.1727 15.1561 10.1942 15.1767 10.2158C15.1962 10.2362 15.2006 10.2547 15.1994 10.2713L15.1994 10.2713L15.1991 10.2758L15.0434 12.7002C15.0434 12.7003 15.0434 12.7004 15.0434 12.7005C15.042 12.7196 15.0326 12.7441 15.005 12.7673C14.9771 12.7907 14.9355 12.8075 14.8852 12.8048L14.8849 12.8048C14.7858 12.7996 14.7543 12.7329 14.7532 12.7063Z" fill="#6EBF5D" stroke="#2C2C2C"/>
<path d="M4.4627 16.197L7.61925 12.5579L10.4552 15.0732L14.2532 10.7372" stroke="#2C2C2C" stroke-width="1.5" stroke-linecap="round" stroke-linejoin="round"/>
</svg>
