<svg width="21" height="20" viewBox="0 0 21 20" fill="none" xmlns="http://www.w3.org/2000/svg">
<path d="M18.9832 7.38514L18.0504 7.22695C17.9674 6.9958 17.8735 6.76902 17.7698 6.54852L18.3191 5.78005C18.797 5.10862 18.7202 4.20181 18.1384 3.62567L17.0175 2.50463C16.7007 2.18782 16.2807 2.01329 15.835 2.01329C15.4841 2.01329 15.1484 2.12142 14.8668 2.32412L14.0954 2.87355C13.8568 2.76074 13.6147 2.66107 13.371 2.57497L13.2167 1.66101C13.081 0.851531 12.3867 0.26416 11.5657 0.26416H9.98203C9.16117 0.26416 8.46684 0.851531 8.33141 1.6594L8.16928 2.60912C7.94032 2.69274 7.71456 2.78774 7.49348 2.89383L6.7361 2.34834C6.45212 2.14389 6.11516 2.0359 5.76157 2.0359C5.31152 2.0359 4.89139 2.21073 4.57807 2.52827L3.45455 3.64815C2.87433 4.22837 2.7983 5.13445 3.27389 5.80252L3.83208 6.58675C3.72919 6.80813 3.63667 7.03593 3.55495 7.2684L2.64084 7.42264C1.83151 7.55851 1.24414 8.25284 1.24414 9.0737V10.6573C1.24414 11.4782 1.83151 12.1725 2.63938 12.3081L3.5891 12.4701C3.67272 12.6992 3.76787 12.9251 3.87381 13.146L3.33037 13.902C2.85244 14.5734 2.9292 15.4804 3.51103 16.0563L4.63192 17.1774C4.94874 17.4942 5.36873 17.6687 5.8144 17.6687C6.16536 17.6687 6.501 17.5606 6.7825 17.358L7.56673 16.7999C7.77279 16.8956 7.98643 16.9833 8.20577 17.0622L8.36118 17.9949C8.49704 18.8042 9.19138 19.3916 10.0122 19.3916H11.5995C12.4204 19.3916 13.1149 18.8042 13.2504 17.9959L13.4086 17.063C13.6398 16.9799 13.8666 16.8861 14.0871 16.7823L14.8531 17.3299C15.137 17.5343 15.474 17.6425 15.8276 17.6425C16.2731 17.6425 16.6931 17.4679 17.0099 17.1511L18.1308 16.0301C18.7112 15.4499 18.7871 14.5438 18.3115 13.8757L17.7616 13.1036C17.8681 12.878 17.9623 12.6513 18.0432 12.426L18.9747 12.2708C19.7841 12.1349 20.3714 11.4406 20.3714 10.6197V9.03926C20.3806 8.21753 19.7975 7.52232 18.9832 7.38514V7.38514ZM19.2507 10.6197C19.2507 10.891 19.0566 11.1205 18.7898 11.1653L17.5544 11.3712C17.3264 11.4092 17.1426 11.57 17.0741 11.7911C16.9644 12.1467 16.8136 12.5102 16.6264 12.871C16.5205 13.0744 16.5374 13.3168 16.6705 13.5033L17.3985 14.5257C17.5555 14.7463 17.5303 15.0458 17.3384 15.2377L16.2175 16.3586C16.1108 16.4652 15.976 16.5217 15.8276 16.5217C15.7105 16.5217 15.6001 16.4867 15.5064 16.4193L14.4884 15.6917C14.3011 15.5573 14.0577 15.5403 13.8533 15.6473C13.5109 15.8265 13.1471 15.9772 12.7719 16.095C12.553 16.1636 12.3932 16.3469 12.3552 16.5725L12.1453 17.8093C12.1005 18.0768 11.871 18.2708 11.5995 18.2708H10.0122C9.74081 18.2708 9.51141 18.0768 9.46661 17.81L9.2607 16.5745C9.22305 16.3481 9.06369 16.1645 8.8448 16.0953C8.47501 15.9786 8.12288 15.8338 7.79789 15.665C7.70931 15.619 7.61343 15.5964 7.51799 15.5964C7.39454 15.5964 7.27166 15.6343 7.16645 15.7092L6.13019 16.4467C6.0368 16.514 5.93056 16.548 5.8144 16.548C5.66599 16.548 5.53115 16.4917 5.42447 16.3848L4.30153 15.262C4.10993 15.0723 4.08556 14.7738 4.24185 14.5541L4.96552 13.5475C5.10167 13.3585 5.11831 13.1134 5.00857 12.9072C4.82455 12.562 4.67205 12.2001 4.55516 11.8314C4.48599 11.6139 4.30343 11.455 4.0787 11.4166L2.82632 11.2031C2.55898 11.1582 2.36489 10.9286 2.36489 10.6573V9.0737C2.36489 8.80242 2.55898 8.57287 2.82676 8.52792L4.04703 8.32202C4.27512 8.28364 4.45885 8.12238 4.52671 7.90057C4.64185 7.52377 4.78996 7.15939 4.96698 6.81791C5.07234 6.61492 5.05541 6.37311 4.92276 6.18647L4.18698 5.15269C4.02981 4.93205 4.05506 4.6326 4.24637 4.44128L5.37106 3.32039L5.37515 3.31615C5.47628 3.21327 5.61345 3.15665 5.76157 3.15665C5.87861 3.15665 5.98922 3.19168 6.08116 3.25793L7.09217 3.98568C7.28144 4.12198 7.5269 4.13833 7.73237 4.02859C8.07749 3.84457 8.4394 3.69207 8.80773 3.57533C9.02517 3.5063 9.18408 3.32403 9.22276 3.09872L9.4364 1.84634C9.4812 1.579 9.71075 1.38491 9.98218 1.38491H11.5658C11.8371 1.38491 12.0667 1.579 12.1116 1.84678L12.3175 3.06749C12.356 3.29572 12.5176 3.47931 12.7395 3.54702C13.1179 3.66201 13.4953 3.81728 13.8615 4.00874C14.0649 4.11498 14.3073 4.09834 14.4946 3.96511L15.5194 3.23531C15.6126 3.16804 15.7189 3.13403 15.8352 3.13403C15.9834 3.13403 16.1183 3.19036 16.2251 3.29718L17.3479 4.41997C17.5395 4.60968 17.564 4.90826 17.4067 5.12905L16.6784 6.14809C16.5447 6.33546 16.528 6.57858 16.6347 6.7823C16.8141 7.12465 16.9647 7.48846 17.0826 7.86379C17.1513 8.08269 17.3345 8.24234 17.5601 8.28043L18.7958 8.49013L18.7968 8.49027C19.0634 8.53507 19.2545 8.76127 19.2507 9.02817V10.6197Z" fill="#2C2C2C" stroke="#2C2C2C" stroke-width="0.5"/>
<path d="M10.8068 6.10791C8.75617 6.10791 7.08789 7.77619 7.08789 9.82681C7.08789 11.8774 8.75617 13.5457 10.8068 13.5457C12.8574 13.5457 14.5257 11.8774 14.5257 9.82681C14.5257 7.77619 12.8574 6.10791 10.8068 6.10791ZM10.8068 12.425C9.37419 12.425 8.20864 11.2594 8.20864 9.82681C8.20864 8.39421 9.37419 7.22866 10.8068 7.22866C12.2394 7.22866 13.4049 8.39421 13.4049 9.82681C13.4049 11.2594 12.2394 12.425 10.8068 12.425Z" fill="#2C2C2C" stroke="#2C2C2C"/>
</svg>
