<svg width="26" height="26" viewBox="0 0 26 26" fill="none" xmlns="http://www.w3.org/2000/svg">
<circle cx="13.2123" cy="12.5967" r="12.4632" fill="#C4C4C4" fill-opacity="0.5"/>
<circle cx="13.2117" cy="12.5965" r="11.6112" fill="#4384D7" stroke="#AFCFFF" stroke-width="1.70392"/>
<path d="M5.5732 17.0967H9.10587C11.1044 17.0967 12.0846 16.0782 12.0846 14.7188C12.0846 13.3978 11.1471 12.6222 10.2181 12.5754V12.4901C11.0704 12.2899 11.7437 11.6933 11.7437 10.6322C11.7437 9.33247 10.8062 8.36941 8.91411 8.36941H5.5732V17.0967ZM7.15416 15.7757V13.2188H8.89706C9.87291 13.2188 10.478 13.8154 10.478 14.5953C10.478 15.2899 10.0008 15.7757 8.85445 15.7757H7.15416ZM7.15416 12.0811V9.67338H8.75218C9.68115 9.67338 10.1627 10.1634 10.1627 10.8367C10.1627 11.6038 9.54053 12.0811 8.71808 12.0811H7.15416ZM20.6318 8.36941H19.0593V14.3183H18.9826L14.8747 8.36941H13.4599V17.0967H15.0409V11.1521H15.1133L19.2255 17.0967H20.6318V8.36941Z" fill="white"/>
</svg>
